# xmcd
# 
# Track frame offsets:
#   150
#   11271
#   25464
#   38639
#   53593
#   65671
#   79452
#   92267
#   105368
#   117284
#   130842
#   145884
#   157931
#   170860
#   183302
# 
# Disc length: 2613 seconds
# 
# Revision: 1
# Processed by: cddbd v1.5.1PL2 Copyright (c) Steve Scherf et al.
# Submitted via: Synapstar 1.0 
# 
DISCID=bb0a330f
DTITLE=Various Artist - cb60272
DYEAR=1900
DGENRE=Country
TTITLE0=Arnold, Eddy - Anytime
TTITLE1=Horton, Johnny - North To Alaska
TTITLE2=Wynette, Tammy - Apartment #9
TTITLE3=Price, Ray - City Lights
TTITLE4=West, Dottie - Here Comes My Baby
TTITLE5=Reeves, Jim - Four Walls
TTITLE6=Lynn, Loretta - Blue Kentucky Girl
TTITLE7=Owens, Buck - Under Your Spell Again
TTITLE8=Smith, Connie - Ain't Had No Lovin'
TTITLE9=Tubb, Earnest - I Love You Because
TTITLE10=Seely, Jeannie - Don't Touch Me
TTITLE11=Dudley, Dave - Truck Drivin' Man
TTITLE12=Smith, Connie - Ribbon Of Darkness
TTITLE13=Pierce, Webb - There Stands The Glass
TTITLE14=Tubb, Earnest - Have You Ever Been Lonely
EXTD=MediaType: Karaoke CD+G Producer: Chartbuster
EXTT0=
EXTT1=
EXTT2=
EXTT3=
EXTT4=
EXTT5=
EXTT6=
EXTT7=
EXTT8=
EXTT9=
EXTT10=
EXTT11=
EXTT12=
EXTT13=
EXTT14=
PLAYORDER=
